<svg width="32" height="32" viewBox="0 0 32 32" xmlns="http://www.w3.org/2000/svg" fill="none">
  <!-- Background (rounded) -->
  <rect x="1" y="1" width="30" height="30" rx="6" fill="#ffffff"/>

  <!-- Beer mug body -->
  <rect x="8" y="12" width="13" height="12" rx="2" fill="#F59E0B" stroke="#D97706" stroke-width="1.5"/>

  <!-- Foam -->
  <ellipse cx="14.5" cy="12" rx="6.5" ry="2.5" fill="#FEF3C7"/>
  <circle cx="12" cy="10.5" r="1.6" fill="#FEF3C7"/>
  <circle cx="17" cy="10.2" r="1.4" fill="#FEF3C7"/>
  <circle cx="14.5" cy="9.2" r="1.6" fill="#FEF3C7"/>

  <!-- Handle -->
  <path d="M 21 14.5 Q 25 14.5, 25 17.5 Q 25 20.5, 21 20.5" fill="none" stroke="#D97706" stroke-width="2" stroke-linecap="round"/>

  <!-- Bubbles -->
  <circle cx="11.5" cy="18.5" r="0.7" fill="#FED7AA" opacity="0.75"/>
  <circle cx="15" cy="20.5" r="0.8" fill="#FED7AA" opacity="0.65"/>
  <circle cx="12.8" cy="22.3" r="0.6" fill="#FED7AA" opacity="0.85"/>

  <!-- Accent sparkle -->
  <g transform="translate(23, 9)">
    <path d="M 0 -1.8 L 0.6 0 L 0 1.8 L -0.6 0 Z" fill="#F59E0B"/>
    <path d="M -1.8 0 L 0 -0.6 L 1.8 0 L 0 0.6 Z" fill="#F59E0B"/>
  </g>

  <!-- Border -->
  <rect x="1" y="1" width="30" height="30" rx="6" stroke="#E5E7EB" stroke-width="1"/>
</svg>

